HIERARCHY
ROOT Hips
{
	OFFSET 0.000000 0.000000 0.000000 
	CHANNELS 6 Xposition Yposition Zposition Zrotation Yrotation Xrotation
	JOINT LeftUpLeg
	{
		OFFSET 1.363060 -1.794630 0.839290 
		CHANNELS 3 Zrotation Yrotation Xrotation
		JOINT LeftLeg
		{
			OFFSET 2.448110 -6.726130 0.000000 
			CHANNELS 3 Zrotation Yrotation Xrotation
			JOINT LeftFoot
			{
				OFFSET 2.562200 -7.039590 0.000000 
				CHANNELS 3 Zrotation Yrotation Xrotation
				JOINT LeftToeBase
				{
					OFFSET 0.157640 -0.433110 2.322550 
					CHANNELS 3 Zrotation Yrotation Xrotation
					End Site
					{
						OFFSET 0.000000 0.000000 0.000000 
					}
				}
			}
		}
	}
	JOINT RightUpLeg
	{
		OFFSET -1.305520 -1.794630 0.839290 
		CHANNELS 3 Zrotation Yrotation Xrotation
		JOINT RightLeg
		{
			OFFSET -2.542530 -6.985550 0.000000 
			CHANNELS 3 Zrotation Yrotation Xrotation
			JOINT RightFoot
			{
				OFFSET -2.568260 -7.056230 0.000000 
				CHANNELS 3 Zrotation Yrotation Xrotation
				JOINT RightToeBase
				{
					OFFSET -0.164730 -0.452590 2.363150 
					CHANNELS 3 Zrotation Yrotation Xrotation
					End Site
					{
						OFFSET 0.000000 0.000000 0.000000 
					}
				}
			}
		}
	}
	JOINT Spine
	{
		OFFSET 0.028270 2.035590 -0.193380 
		CHANNELS 3 Zrotation Yrotation Xrotation
		JOINT Spine1
		{
			OFFSET 0.056720 2.048850 -0.042750 
			CHANNELS 3 Zrotation Yrotation Xrotation
			JOINT Neck1
			{
				OFFSET -0.054170 1.746240 0.172020 
				CHANNELS 3 Zrotation Yrotation Xrotation
				JOINT Head
				{
					OFFSET 0.104070 1.761360 -0.123970 
					CHANNELS 3 Zrotation Yrotation Xrotation
					End Site
					{
						OFFSET 0.000000 0.000000 0.000000 
					}
				}
			}
			JOINT LeftArm
			{
				OFFSET 3.362410 1.200890 -0.311210 
				CHANNELS 3 Zrotation Yrotation Xrotation
				JOINT LeftForeArm
				{
					OFFSET 4.983000 -0.000000 -0.000000 
					CHANNELS 3 Zrotation Yrotation Xrotation
					JOINT LeftHand
					{
						OFFSET 3.483560 -0.000000 -0.000000 
						CHANNELS 3 Zrotation Yrotation Xrotation
						JOINT LeftHandIndex1
						{
							OFFSET 0.715260 -0.000000 -0.000000 
							CHANNELS 3 Zrotation Yrotation Xrotation
							End Site
							{
								OFFSET 0.000000 0.000000 0.000000 
							}
						}
					}
				}
			}
			JOINT RightArm
			{
				OFFSET -3.136600 1.374050 -0.404650 
				CHANNELS 3 Zrotation Yrotation Xrotation
				JOINT RightForeArm
				{
					OFFSET -5.241900 -0.000000 -0.000000 
					CHANNELS 3 Zrotation Yrotation Xrotation
					JOINT RightHand
					{
						OFFSET -3.444170 -0.000000 -0.000000 
						CHANNELS 3 Zrotation Yrotation Xrotation
						JOINT RightHandIndex1
						{
							OFFSET -0.622530 -0.000000 -0.000000 
							CHANNELS 3 Zrotation Yrotation Xrotation
							End Site
							{
								OFFSET 0.000000 0.000000 0.000000 
							}
						}
					}
				}
			}
		}
	}
}
MOTION
Frames: 13
Frame Time: 0.041667
42.715990 17.799465 5.678779 -118.313779 -83.083599 130.217840 -9.309101 -8.149598 -11.680758 -0.123073 5.063104 12.659734 -1.002719 7.388761 0.066085 0.015800 0.812000 2.231700 27.500912 4.720288 -12.939591 -0.273484 -5.344616 13.516571 1.110156 -8.993161 -2.312708 -1.032100 -6.461800 18.130400 2.200537 -1.788236 -4.745842 5.442363 -1.168429 -0.831614 6.675541 -9.721236 5.327969 3.358800 -4.903400 5.801300 -89.151113 12.444967 28.578061 22.623943 -40.787385 -6.492584 -1.744682 3.401505 0.341829 -7.125000 0.000000 0.000000 78.853916 1.689247 24.995566 -14.903858 28.925766 -4.148147 -0.605259 0.263146 1.674518 7.125000 0.000000 0.000000 
42.701559 17.799664 5.679973 -118.699017 -83.074280 130.646033 -9.346030 -8.081354 -11.579200 -0.136918 5.006097 12.495833 -0.996372 7.361359 0.066094 0.016300 0.823600 2.263600 27.478602 4.774589 -12.941179 -0.278468 -5.368477 13.583892 1.109801 -8.985568 -2.386993 -1.024500 -6.438900 18.063300 2.139320 -1.785859 -4.708502 5.238268 -1.177839 -0.658810 6.877799 -9.671778 5.134261 3.398000 -4.848900 5.793900 -89.028680 12.941365 31.099778 21.254646 -39.742846 -6.082494 -0.090504 3.312311 8.045435 -7.125000 0.000000 0.000000 79.097816 1.595447 25.158621 -14.833191 28.852360 -4.120731 -0.603751 0.267986 1.845053 7.125000 0.000000 0.000000 
42.687825 17.800162 5.679874 -119.400815 -83.108707 131.352702 -9.434478 -8.029369 -11.477565 -0.148102 4.959063 12.362045 -0.991084 7.340608 0.087157 0.017500 0.855100 2.350200 27.395273 4.756498 -12.913713 -0.278984 -5.365813 13.582949 1.107733 -8.971602 -2.379212 -1.023700 -6.436500 18.056300 2.116504 -1.765819 -4.763973 5.205422 -1.169324 -0.788109 7.008070 -9.578110 4.951421 3.455500 -4.797400 5.708700 -89.032889 13.120448 31.377338 21.176739 -39.679819 -6.062491 0.000165 3.308662 8.314344 -7.125000 0.000000 0.000000 79.161201 1.154932 25.303187 -14.764578 28.767881 -4.089464 -0.603223 0.270163 1.841835 7.125000 0.000000 0.000000 
42.673196 17.800162 5.680471 -119.748638 -83.149316 131.717674 -9.502095 -7.990488 -11.384583 -0.157837 4.917787 12.245235 -0.982430 7.303613 0.118284 0.018300 0.873200 2.400100 27.344552 4.798935 -12.893020 -0.283728 -5.387987 13.645779 1.114700 -9.006519 -2.451290 -1.015200 -6.410400 17.980000 2.207104 -1.876910 -4.739515 5.594427 -1.219017 -0.578498 7.079415 -9.330057 4.604670 3.530200 -4.678500 5.535600 -89.527751 13.233944 31.138198 21.094706 -39.635672 -6.021467 0.320344 2.997669 8.599158 -7.125000 0.000000 0.000000 78.917192 0.997402 25.551041 -14.637434 28.613537 -4.047716 -0.590761 0.286690 2.074316 7.125000 0.000000 0.000000 
42.659263 17.800062 5.680869 -119.235768 -83.145966 131.199378 -9.467424 -7.957521 -11.331001 -0.160812 4.902532 12.207838 -0.965878 7.224872 0.168271 0.018000 0.865200 2.377900 27.382439 4.698240 -12.871915 -0.283432 -5.386574 13.641003 1.111976 -8.990202 -2.458801 -1.018900 -6.421800 18.013200 2.155039 -1.849728 -4.753082 5.370558 -1.211325 -0.632489 7.148001 -9.309916 4.542814 3.518100 -4.650800 5.566800 -89.412654 13.223686 31.144161 21.246431 -39.757938 -6.072786 0.160332 3.113454 8.027462 -7.125000 0.000000 0.000000 79.168066 0.752843 25.653434 -14.546298 28.496274 -4.002485 -0.592368 0.288669 2.056859 7.125000 0.000000 0.000000 
42.645429 17.800262 5.681566 -119.241482 -83.173221 131.213149 -9.502863 -7.921045 -11.267230 -0.166415 4.878065 12.140180 -0.953885 7.168963 0.197150 0.018200 0.871900 2.396500 27.355328 4.650998 -12.857563 -0.284881 -5.393055 13.659967 1.111103 -8.982877 -2.484312 -1.016300 -6.413800 17.989800 2.156186 -1.871418 -4.744006 5.397100 -1.223154 -0.551983 7.231185 -9.206745 4.366502 3.544900 -4.589500 5.520200 -89.517137 13.263412 31.311843 21.167807 -39.716099 -6.063510 0.308827 3.062919 8.465387 -7.125000 0.000000 0.000000 79.225282 0.570547 25.788302 -14.437269 28.358658 -3.956619 -0.588921 0.294568 2.134041 7.125000 0.000000 0.000000 
42.631795 17.800361 5.682163 -119.140272 -83.203540 131.118209 -9.535623 -7.889011 -11.215820 -0.170270 4.861884 12.095906 -0.941287 7.109671 0.223648 0.018400 0.875200 2.405400 27.331046 4.587839 -12.843530 -0.286044 -5.397970 13.674171 1.109610 -8.972418 -2.507258 -1.014200 -6.407400 17.971100 2.159014 -1.891655 -4.730971 5.430024 -1.233973 -0.461517 7.304388 -9.108581 4.203715 3.566900 -4.530900 5.482100 -89.625445 13.245083 31.361430 21.165098 -39.732824 -6.068322 0.356642 3.041212 8.476471 -7.125000 0.000000 0.000000 79.285804 0.409428 25.899937 -14.318426 28.206071 -3.906167 -0.585452 0.299598 2.198605 7.125000 0.000000 0.000000 
42.618459 17.800461 5.682959 -118.941929 -83.233118 130.924618 -9.563727 -7.860631 -11.176475 -0.172256 4.853961 12.075141 -0.928901 7.050420 0.242347 0.018400 0.876000 2.407600 27.312396 4.519753 -12.827985 -0.286964 -5.402341 13.686153 1.107885 -8.960681 -2.532941 -1.012100 -6.401100 17.952600 2.159951 -1.909452 -4.713306 5.453086 -1.243766 -0.359703 7.375557 -9.018354 4.053439 3.585500 -4.475500 5.453800 -89.719523 13.194591 31.422991 21.165282 -39.751066 -6.073032 0.389680 3.029525 8.456372 -7.125000 0.000000 0.000000 79.363312 0.271417 25.991384 -14.192554 28.042437 -3.852453 -0.582135 0.303446 2.260727 7.125000 0.000000 0.000000 
42.605223 17.800560 5.683855 -118.660806 -83.262482 130.645796 -9.589815 -7.837801 -11.147414 -0.172384 4.853987 12.077283 -0.917015 6.991508 0.249546 0.018400 0.874900 2.404600 27.296795 4.443853 -12.810268 -0.287586 -5.405331 13.694375 1.105775 -8.946279 -2.560943 -1.010100 -6.394700 17.933900 2.155238 -1.920485 -4.697295 5.452134 -1.250658 -0.269427 7.447092 -8.941030 3.922986 3.601600 -4.426000 5.436500 -89.780955 13.125647 31.517531 21.167523 -39.768499 -6.077390 0.404847 3.034677 8.422521 -7.125000 0.000000 0.000000 79.466256 0.135051 26.054479 -14.061586 27.869933 -3.795992 -0.579275 0.305804 2.313593 7.125000 0.000000 0.000000 
42.592186 17.800560 5.684949 -118.315770 -83.294742 130.303203 -9.618729 -7.824403 -11.126708 -0.170953 4.861522 12.099990 -0.906536 6.938242 0.243648 0.018400 0.876100 2.407900 27.280771 4.369273 -12.790051 -0.288050 -5.408210 13.701951 1.103935 -8.933789 -2.595534 -1.007100 -6.385700 17.907700 2.152996 -1.931940 -4.677961 5.460849 -1.257399 -0.167507 7.513786 -8.866841 3.800760 3.616200 -4.378400 5.423500 -89.840732 13.031287 31.633358 21.167550 -39.784247 -6.079931 0.418942 3.038907 8.397284 -7.125000 0.000000 0.000000 79.567813 0.018153 26.099305 -13.921432 27.683221 -3.735530 -0.576440 0.307844 2.362359 7.125000 0.000000 0.000000 
42.579347 17.800560 5.686243 -117.873133 -83.320676 129.860066 -9.638412 -7.816580 -11.112900 -0.168029 4.874887 12.139965 -0.897473 6.890445 0.228640 0.018400 0.876700 2.409600 27.275447 4.295203 -12.762842 -0.287990 -5.408829 13.703144 1.102535 -8.922793 -2.635423 -1.005500 -6.380700 17.893200 2.142825 -1.935621 -4.664502 5.429921 -1.261041 -0.090786 7.584922 -8.805703 3.698096 3.630500 -4.336900 5.418500 -89.855187 12.936900 31.792200 21.172873 -39.797627 -6.083000 0.430729 3.042016 8.376109 -7.125000 0.000000 0.000000 79.703695 -0.112149 26.110376 -13.775930 27.487427 -3.672504 -0.573807 0.309765 2.423488 7.125000 0.000000 0.000000 
42.566509 17.800361 5.687736 -117.360733 -83.345539 129.347860 -9.655792 -7.816626 -11.107629 -0.163889 4.894010 12.196221 -0.889468 6.846678 0.202509 0.018300 0.872800 2.398800 27.273808 4.223645 -12.733490 -0.287599 -5.408240 13.700303 1.101522 -8.914824 -2.678111 -1.003300 -6.374000 17.873500 2.132736 -1.938574 -4.651205 5.395089 -1.264238 -0.015030 7.648129 -8.751258 3.603773 3.641100 -4.299300 5.416800 -89.855406 12.831551 31.976881 21.184467 -39.815515 -6.087990 0.441666 3.044482 8.368616 -7.125000 0.000000 0.000000 79.844355 -0.236897 26.114251 -13.628582 27.287438 -3.608751 -0.571311 0.311677 2.482244 7.125000 0.000000 0.000000 
42.553671 17.800062 5.689527 -116.785652 -83.370653 128.773515 -9.673099 -7.827284 -11.108433 -0.158315 4.918562 12.267735 -0.883824 6.813518 0.168599 0.018100 0.868900 2.388200 27.274285 4.150445 -12.699510 -0.286308 -5.404298 13.688077 1.101294 -8.910802 -2.721653 -1.000900 -6.366300 17.851100 2.123764 -1.944946 -4.639155 5.358804 -1.269136 0.058357 7.700324 -8.698149 3.518679 3.648800 -4.263400 5.415000 -89.846813 12.730826 32.176111 21.210055 -39.846453 -6.098934 0.451468 3.048639 8.375267 -7.125000 0.000000 0.000000 79.987463 -0.358416 26.106966 -13.477565 27.080541 -3.542743 -0.569469 0.313793 2.547256 7.125000 0.000000 0.000000 
